<svg xmlns="http://www.w3.org/2000/svg" version="1.1" xmlns:xlink="http://www.w3.org/1999/xlink" xmlns:svgjs="http://svgjs.dev/svgjs" width="1440" height="560" preserveAspectRatio="none" viewBox="0 0 1440 560">
    <g mask="url(&quot;#SvgjsMask1002&quot;)" fill="none">
        <rect width="1440" height="560" x="0" y="0" fill="#0e2a47"></rect>
        <path d="M25.38 -37.74L90.33 -0.24L90.33 74.76L25.38 112.26L-39.57 74.76L-39.57 -0.24zM90.33 74.76L155.29 112.26L155.29 187.26L90.33 224.76L25.38 187.26L25.38 112.26zM155.29 187.26L220.24 224.76L220.24 299.76L155.29 337.26L90.33 299.76L90.33 224.76zM155.29 412.26L220.24 449.76L220.24 524.76L155.29 562.26L90.33 524.76L90.33 449.76zM285.19 -37.74L350.15 -0.24L350.15 74.76L285.19 112.26L220.24 74.76L220.24 -0.24zM415.1 -37.74L480.06 -0.24L480.06 74.76L415.1 112.26L350.15 74.76L350.15 -0.24zM415.1 187.26L480.06 224.76L480.06 299.76L415.1 337.26L350.15 299.76L350.15 224.76zM545.01 -37.74L609.96 -0.24L609.96 74.76L545.01 112.26L480.06 74.76L480.06 -0.24zM609.96 74.76L674.92 112.26L674.92 187.26L609.96 224.76L545.01 187.26L545.01 112.26zM1259.5 299.76L1324.45 337.26L1324.45 412.26L1259.5 449.76L1194.55 412.26L1194.55 337.26zM1324.46 187.26L1389.41 224.76L1389.41 299.76L1324.46 337.26L1259.5 299.76L1259.5 224.76zM1454.36 -37.74L1519.32 -0.24L1519.32 74.76L1454.36 112.26L1389.41 74.76L1389.41 -0.24zM1454.36 187.26L1519.32 224.76L1519.32 299.76L1454.36 337.26L1389.41 299.76L1389.41 224.76z" stroke="rgba(45, 116, 186, 1)" stroke-width="2"></path>
        <path d="M17.88 -37.74 a7.5 7.5 0 1 0 15 0 a7.5 7.5 0 1 0 -15 0zM82.83 -0.24 a7.5 7.5 0 1 0 15 0 a7.5 7.5 0 1 0 -15 0zM82.83 74.76 a7.5 7.5 0 1 0 15 0 a7.5 7.5 0 1 0 -15 0zM17.88 112.26 a7.5 7.5 0 1 0 15 0 a7.5 7.5 0 1 0 -15 0zM-47.07 74.76 a7.5 7.5 0 1 0 15 0 a7.5 7.5 0 1 0 -15 0zM-47.07 -0.24 a7.5 7.5 0 1 0 15 0 a7.5 7.5 0 1 0 -15 0zM147.79 112.26 a7.5 7.5 0 1 0 15 0 a7.5 7.5 0 1 0 -15 0zM147.79 187.26 a7.5 7.5 0 1 0 15 0 a7.5 7.5 0 1 0 -15 0zM82.83 224.76 a7.5 7.5 0 1 0 15 0 a7.5 7.5 0 1 0 -15 0zM17.88 187.26 a7.5 7.5 0 1 0 15 0 a7.5 7.5 0 1 0 -15 0zM212.74 224.76 a7.5 7.5 0 1 0 15 0 a7.5 7.5 0 1 0 -15 0zM212.74 299.76 a7.5 7.5 0 1 0 15 0 a7.5 7.5 0 1 0 -15 0zM147.79 337.26 a7.5 7.5 0 1 0 15 0 a7.5 7.5 0 1 0 -15 0zM82.83 299.76 a7.5 7.5 0 1 0 15 0 a7.5 7.5 0 1 0 -15 0zM147.79 412.26 a7.5 7.5 0 1 0 15 0 a7.5 7.5 0 1 0 -15 0zM212.74 449.76 a7.5 7.5 0 1 0 15 0 a7.5 7.5 0 1 0 -15 0zM212.74 524.76 a7.5 7.5 0 1 0 15 0 a7.5 7.5 0 1 0 -15 0zM147.79 562.26 a7.5 7.5 0 1 0 15 0 a7.5 7.5 0 1 0 -15 0zM82.83 524.76 a7.5 7.5 0 1 0 15 0 a7.5 7.5 0 1 0 -15 0zM82.83 449.76 a7.5 7.5 0 1 0 15 0 a7.5 7.5 0 1 0 -15 0zM277.69 -37.74 a7.5 7.5 0 1 0 15 0 a7.5 7.5 0 1 0 -15 0zM342.65 -0.24 a7.5 7.5 0 1 0 15 0 a7.5 7.5 0 1 0 -15 0zM342.65 74.76 a7.5 7.5 0 1 0 15 0 a7.5 7.5 0 1 0 -15 0zM277.69 112.26 a7.5 7.5 0 1 0 15 0 a7.5 7.5 0 1 0 -15 0zM212.74 74.76 a7.5 7.5 0 1 0 15 0 a7.5 7.5 0 1 0 -15 0zM212.74 -0.24 a7.5 7.5 0 1 0 15 0 a7.5 7.5 0 1 0 -15 0zM407.6 -37.74 a7.5 7.5 0 1 0 15 0 a7.5 7.5 0 1 0 -15 0zM472.56 -0.24 a7.5 7.5 0 1 0 15 0 a7.5 7.5 0 1 0 -15 0zM472.56 74.76 a7.5 7.5 0 1 0 15 0 a7.5 7.5 0 1 0 -15 0zM407.6 112.26 a7.5 7.5 0 1 0 15 0 a7.5 7.5 0 1 0 -15 0zM407.6 187.26 a7.5 7.5 0 1 0 15 0 a7.5 7.5 0 1 0 -15 0zM472.56 224.76 a7.5 7.5 0 1 0 15 0 a7.5 7.5 0 1 0 -15 0zM472.56 299.76 a7.5 7.5 0 1 0 15 0 a7.5 7.5 0 1 0 -15 0zM407.6 337.26 a7.5 7.5 0 1 0 15 0 a7.5 7.5 0 1 0 -15 0zM342.65 299.76 a7.5 7.5 0 1 0 15 0 a7.5 7.5 0 1 0 -15 0zM342.65 224.76 a7.5 7.5 0 1 0 15 0 a7.5 7.5 0 1 0 -15 0zM537.51 -37.74 a7.5 7.5 0 1 0 15 0 a7.5 7.5 0 1 0 -15 0zM602.46 -0.24 a7.5 7.5 0 1 0 15 0 a7.5 7.5 0 1 0 -15 0zM602.46 74.76 a7.5 7.5 0 1 0 15 0 a7.5 7.5 0 1 0 -15 0zM537.51 112.26 a7.5 7.5 0 1 0 15 0 a7.5 7.5 0 1 0 -15 0zM667.42 112.26 a7.5 7.5 0 1 0 15 0 a7.5 7.5 0 1 0 -15 0zM667.42 187.26 a7.5 7.5 0 1 0 15 0 a7.5 7.5 0 1 0 -15 0zM602.46 224.76 a7.5 7.5 0 1 0 15 0 a7.5 7.5 0 1 0 -15 0zM537.51 187.26 a7.5 7.5 0 1 0 15 0 a7.5 7.5 0 1 0 -15 0zM1252 299.76 a7.5 7.5 0 1 0 15 0 a7.5 7.5 0 1 0 -15 0zM1316.95 337.26 a7.5 7.5 0 1 0 15 0 a7.5 7.5 0 1 0 -15 0zM1316.95 412.26 a7.5 7.5 0 1 0 15 0 a7.5 7.5 0 1 0 -15 0zM1252 449.76 a7.5 7.5 0 1 0 15 0 a7.5 7.5 0 1 0 -15 0zM1187.05 412.26 a7.5 7.5 0 1 0 15 0 a7.5 7.5 0 1 0 -15 0zM1187.05 337.26 a7.5 7.5 0 1 0 15 0 a7.5 7.5 0 1 0 -15 0zM1316.96 187.26 a7.5 7.5 0 1 0 15 0 a7.5 7.5 0 1 0 -15 0zM1381.91 224.76 a7.5 7.5 0 1 0 15 0 a7.5 7.5 0 1 0 -15 0zM1381.91 299.76 a7.5 7.5 0 1 0 15 0 a7.5 7.5 0 1 0 -15 0zM1316.96 337.26 a7.5 7.5 0 1 0 15 0 a7.5 7.5 0 1 0 -15 0zM1252 224.76 a7.5 7.5 0 1 0 15 0 a7.5 7.5 0 1 0 -15 0zM1446.86 -37.74 a7.5 7.5 0 1 0 15 0 a7.5 7.5 0 1 0 -15 0zM1511.82 -0.24 a7.5 7.5 0 1 0 15 0 a7.5 7.5 0 1 0 -15 0zM1511.82 74.76 a7.5 7.5 0 1 0 15 0 a7.5 7.5 0 1 0 -15 0zM1446.86 112.26 a7.5 7.5 0 1 0 15 0 a7.5 7.5 0 1 0 -15 0zM1381.91 74.76 a7.5 7.5 0 1 0 15 0 a7.5 7.5 0 1 0 -15 0zM1381.91 -0.24 a7.5 7.5 0 1 0 15 0 a7.5 7.5 0 1 0 -15 0zM1446.86 187.26 a7.5 7.5 0 1 0 15 0 a7.5 7.5 0 1 0 -15 0zM1511.82 224.76 a7.5 7.5 0 1 0 15 0 a7.5 7.5 0 1 0 -15 0zM1511.82 299.76 a7.5 7.5 0 1 0 15 0 a7.5 7.5 0 1 0 -15 0zM1446.86 337.26 a7.5 7.5 0 1 0 15 0 a7.5 7.5 0 1 0 -15 0z" fill="rgba(45, 116, 186, 1)"></path>
        <path d="M23.79 286.41L67.09 311.41L67.09 361.41L23.79 386.41L-19.51 361.41L-19.51 311.41zM23.79 436.41L67.09 461.41L67.09 511.41L23.79 536.41L-19.51 511.41L-19.51 461.41zM110.4 -13.59L153.7 11.41L153.7 61.41L110.4 86.41L67.09 61.41L67.09 11.41zM110.4 136.41L153.7 161.41L153.7 211.41L110.4 236.41L67.09 211.41L67.09 161.41zM153.7 211.41L197 236.41L197 286.41L153.7 311.41L110.4 286.41L110.4 236.41zM197 -13.59L240.3 11.41L240.3 61.41L197 86.41L153.7 61.41L153.7 11.41zM240.3 61.41L283.61 86.41L283.61 136.41L240.3 161.41L197 136.41L197 86.41zM326.91 61.41L370.21 86.41L370.21 136.41L326.91 161.41L283.61 136.41L283.61 86.41zM326.91 211.41L370.21 236.41L370.21 286.41L326.91 311.41L283.61 286.41L283.61 236.41zM283.61 286.41L326.91 311.41L326.91 361.41L283.61 386.41L240.3 361.41L240.3 311.41zM326.91 361.41L370.21 386.41L370.21 436.41L326.91 461.41L283.61 436.41L283.61 386.41zM283.61 436.41L326.91 461.41L326.91 511.41L283.61 536.41L240.3 511.41L240.3 461.41zM326.91 511.41L370.21 536.41L370.21 586.41L326.91 611.41L283.61 586.41L283.61 536.41zM413.51 361.41L456.82 386.41L456.82 436.41L413.51 461.41L370.21 436.41L370.21 386.41zM370.21 436.41L413.51 461.41L413.51 511.41L370.21 536.41L326.91 511.41L326.91 461.41zM413.51 511.41L456.82 536.41L456.82 586.41L413.51 611.41L370.21 586.41L370.21 536.41zM456.82 -13.59L500.12 11.41L500.12 61.41L456.82 86.41L413.51 61.41L413.51 11.41zM456.82 136.41L500.12 161.41L500.12 211.41L456.82 236.41L413.51 211.41L413.51 161.41zM543.42 -13.59L586.72 11.41L586.72 61.41L543.42 86.41L500.12 61.41L500.12 11.41zM543.42 136.41L586.72 161.41L586.72 211.41L543.42 236.41L500.12 211.41L500.12 161.41zM543.42 286.41L586.72 311.41L586.72 361.41L543.42 386.41L500.12 361.41L500.12 311.41zM586.72 361.41L630.02 386.41L630.02 436.41L586.72 461.41L543.42 436.41L543.42 386.41zM586.72 511.41L630.02 536.41L630.02 586.41L586.72 611.41L543.42 586.41L543.42 536.41zM673.33 61.41L716.63 86.41L716.63 136.41L673.33 161.41L630.02 136.41L630.02 86.41zM630.02 436.41L673.33 461.41L673.33 511.41L630.02 536.41L586.72 511.41L586.72 461.41zM673.33 511.41L716.63 536.41L716.63 586.41L673.33 611.41L630.02 586.41L630.02 536.41zM759.93 211.41L803.24 236.41L803.24 286.41L759.93 311.41L716.63 286.41L716.63 236.41zM716.63 286.41L759.93 311.41L759.93 361.41L716.63 386.41L673.33 361.41L673.33 311.41zM759.93 361.41L803.24 386.41L803.24 436.41L759.93 461.41L716.63 436.41L716.63 386.41zM759.93 511.41L803.24 536.41L803.24 586.41L759.93 611.41L716.63 586.41L716.63 536.41zM803.24 -13.59L846.54 11.41L846.54 61.41L803.24 86.41L759.93 61.41L759.93 11.41zM803.24 136.41L846.54 161.41L846.54 211.41L803.24 236.41L759.93 211.41L759.93 161.41zM846.54 211.41L889.84 236.41L889.84 286.41L846.54 311.41L803.24 286.41L803.24 236.41zM846.54 361.41L889.84 386.41L889.84 436.41L846.54 461.41L803.24 436.41L803.24 386.41zM803.24 436.41L846.54 461.41L846.54 511.41L803.24 536.41L759.93 511.41L759.93 461.41zM933.14 61.41L976.45 86.41L976.45 136.41L933.14 161.41L889.84 136.41L889.84 86.41zM933.14 211.41L976.45 236.41L976.45 286.41L933.14 311.41L889.84 286.41L889.84 236.41zM933.14 361.41L976.45 386.41L976.45 436.41L933.14 461.41L889.84 436.41L889.84 386.41zM889.84 436.41L933.14 461.41L933.14 511.41L889.84 536.41L846.54 511.41L846.54 461.41zM933.14 511.41L976.45 536.41L976.45 586.41L933.14 611.41L889.84 586.41L889.84 536.41zM976.45 -13.59L1019.75 11.41L1019.75 61.41L976.45 86.41L933.14 61.41L933.14 11.41zM976.45 136.41L1019.75 161.41L1019.75 211.41L976.45 236.41L933.14 211.41L933.14 161.41zM1019.75 211.41L1063.05 236.41L1063.05 286.41L1019.75 311.41L976.45 286.41L976.45 236.41zM976.45 436.41L1019.75 461.41L1019.75 511.41L976.45 536.41L933.14 511.41L933.14 461.41zM1019.75 511.41L1063.05 536.41L1063.05 586.41L1019.75 611.41L976.45 586.41L976.45 536.41zM1063.05 -13.59L1106.35 11.41L1106.35 61.41L1063.05 86.41L1019.75 61.41L1019.75 11.41zM1063.05 286.41L1106.35 311.41L1106.35 361.41L1063.05 386.41L1019.75 361.41L1019.75 311.41zM1149.65 -13.59L1192.96 11.41L1192.96 61.41L1149.65 86.41L1106.35 61.41L1106.35 11.41zM1192.96 61.41L1236.26 86.41L1236.26 136.41L1192.96 161.41L1149.65 136.41L1149.65 86.41zM1192.96 211.41L1236.26 236.41L1236.26 286.41L1192.96 311.41L1149.65 286.41L1149.65 236.41zM1236.26 136.41L1279.56 161.41L1279.56 211.41L1236.26 236.41L1192.96 211.41L1192.96 161.41zM1236.26 436.41L1279.56 461.41L1279.56 511.41L1236.26 536.41L1192.96 511.41L1192.96 461.41zM1279.56 511.41L1322.87 536.41L1322.87 586.41L1279.56 611.41L1236.26 586.41L1236.26 536.41zM1322.87 -13.59L1366.17 11.41L1366.17 61.41L1322.87 86.41L1279.56 61.41L1279.56 11.41zM1366.17 211.41L1409.47 236.41L1409.47 286.41L1366.17 311.41L1322.87 286.41L1322.87 236.41zM1409.47 -13.59L1452.77 11.41L1452.77 61.41L1409.47 86.41L1366.17 61.41L1366.17 11.41zM1452.77 61.41L1496.08 86.41L1496.08 136.41L1452.77 161.41L1409.47 136.41L1409.47 86.41zM1409.47 136.41L1452.77 161.41L1452.77 211.41L1409.47 236.41L1366.17 211.41L1366.17 161.41zM1452.77 211.41L1496.08 236.41L1496.08 286.41L1452.77 311.41L1409.47 286.41L1409.47 236.41zM1409.47 286.41L1452.77 311.41L1452.77 361.41L1409.47 386.41L1366.17 361.41L1366.17 311.41z" stroke="rgba(20, 167, 227, 0.93)" stroke-width="2"></path>
    </g>
    <defs>
        <mask id="SvgjsMask1002">
            <rect width="1440" height="560" fill="#ffffff"></rect>
        </mask>
    </defs>
</svg>